<?xml version="1.0" standalone="no"?>
<!DOCTYPE svg PUBLIC "-//W3C//DTD SVG 20010904//EN"
 "http://www.w3.org/TR/2001/REC-SVG-20010904/DTD/svg10.dtd">
<svg version="1.0" xmlns="http://www.w3.org/2000/svg"
 width="1080.000000pt" height="1080.000000pt" viewBox="0 0 1080.000000 1080.000000"
 preserveAspectRatio="xMidYMid meet">
<metadata>
Created by potrace 1.16, written by Peter Selinger 2001-2019
</metadata>
<g transform="translate(0.000000,1080.000000) scale(0.100000,-0.100000)"
fill="#000000" stroke="none">
<path d="M5450 9253 c0 -6 -12 -114 -26 -240 -38 -334 -27 -432 59 -521 83
-87 234 -132 375 -112 175 24 268 137 297 356 26 209 48 434 42 440 -8 8 -167
27 -174 20 -3 -2 -18 -119 -34 -258 -26 -224 -32 -259 -56 -307 -34 -67 -74
-91 -153 -91 -120 0 -190 72 -190 195 0 33 11 157 25 275 14 118 25 220 25
226 0 6 -38 15 -95 20 -72 7 -95 6 -95 -3z"/>
<path d="M6451 9028 c-123 -377 -230 -723 -224 -729 11 -9 166 -60 170 -55 5
4 253 778 253 788 0 7 -150 58 -170 58 -4 0 -18 -28 -29 -62z"/>
<path d="M6785 8569 c-225 -231 -411 -424 -413 -428 -1 -4 30 -21 69 -39 l71
-31 266 272 c147 150 334 341 416 424 82 84 148 154 145 157 -8 8 -129 66
-136 66 -4 0 -192 -189 -418 -421z"/>
<path d="M4170 8849 c-54 -33 -91 -70 -111 -114 l-18 -40 -16 38 c-8 20 -18
37 -21 37 -6 0 -147 -60 -152 -64 -3 -4 235 -577 244 -585 4 -4 129 44 154 59
10 6 -2 45 -53 168 -76 180 -83 226 -44 283 12 19 44 45 70 59 26 14 47 30 46
35 0 6 -15 40 -32 78 l-32 67 -35 -21z"/>
<path d="M7237 8501 c-86 -114 -169 -234 -184 -267 -38 -82 -43 -178 -13 -258
30 -79 127 -177 224 -226 64 -32 78 -35 155 -35 100 0 153 20 221 81 43 39
350 436 350 453 0 5 -32 33 -71 62 -61 45 -73 51 -83 38 -305 -404 -336 -440
-403 -458 -75 -20 -178 34 -214 112 -39 87 -22 126 166 377 85 114 155 209
155 212 0 3 -33 30 -73 61 l-73 55 -157 -207z"/>
<path d="M4803 8560 c-54 -32 -63 -121 -17 -171 44 -48 133 -44 174 8 23 29
26 88 8 128 -24 54 -106 71 -165 35z"/>
<path d="M3503 8505 c-99 -31 -195 -113 -235 -203 -32 -71 -30 -180 4 -253 33
-73 89 -134 152 -167 44 -23 63 -27 142 -27 84 0 95 3 165 37 40 20 96 57 122
83 47 45 103 143 95 167 -3 7 -33 19 -69 28 l-64 16 -21 -47 c-34 -73 -121
-129 -199 -129 -46 0 -105 22 -105 40 0 6 90 70 200 143 l200 134 -31 46 c-80
121 -223 174 -356 132z m157 -160 c11 -10 20 -21 20 -25 0 -11 -259 -180 -264
-172 -18 30 -17 85 4 127 32 65 87 97 162 92 38 -2 64 -10 78 -22z"/>
<path d="M8094 7842 l-72 -237 -248 -7 c-136 -4 -254 -9 -261 -10 -7 -2 12
-35 50 -85 72 -95 49 -89 282 -73 71 5 132 7 134 5 2 -3 -20 -79 -48 -170 -32
-100 -49 -170 -44 -178 26 -45 119 -155 124 -149 4 4 37 108 73 232 37 124 71
235 76 248 9 21 14 22 152 23 79 1 189 4 245 8 l102 6 -61 78 -61 79 -167 -7
-168 -7 49 160 49 161 -61 80 c-34 45 -65 81 -68 81 -3 0 -38 -107 -77 -238z"/>
<path d="M2895 8022 c-102 -49 -185 -164 -185 -256 0 -19 -1 -19 -23 2 -13 12
-26 22 -28 22 -3 0 -31 -29 -62 -64 l-57 -64 316 -294 c174 -161 319 -293 323
-293 4 0 34 29 66 63 l59 64 -110 103 c-94 90 -106 104 -84 105 39 1 111 38
154 78 21 20 51 64 67 97 60 124 29 267 -78 367 -75 69 -124 91 -218 95 -72 4
-86 1 -140 -25z m192 -173 c72 -44 112 -124 98 -195 -9 -52 -77 -120 -129
-129 -55 -11 -110 9 -160 58 -56 53 -75 109 -57 167 33 111 152 158 248 99z"/>
<path d="M2460 7391 c-95 -31 -167 -94 -218 -188 -106 -199 -31 -405 175 -483
158 -60 334 24 416 198 29 61 32 76 32 162 0 86 -3 100 -29 148 -58 104 -156
163 -276 168 -41 2 -86 0 -100 -5z m160 -200 c63 -38 90 -81 90 -146 0 -60
-26 -106 -79 -142 -89 -60 -238 3 -272 115 -23 77 27 169 106 197 50 18 98 11
155 -24z"/>
<path d="M8548 6771 c-264 -77 -398 -120 -398 -129 0 -33 115 -404 143 -461
82 -169 253 -260 429 -231 91 16 194 68 248 126 77 83 118 213 105 329 -5 44
-120 474 -129 481 0 1 -180 -51 -398 -115z m326 -193 c53 -174 54 -235 2 -320
-36 -60 -103 -102 -184 -118 -104 -19 -205 25 -257 114 -25 42 -93 252 -84
260 4 3 478 144 491 145 4 1 19 -36 32 -81z"/>
<path d="M1797 6813 c-7 -13 -52 -147 -52 -157 0 -5 187 -75 415 -157 l415
-147 27 76 c16 42 28 81 28 87 0 7 -181 76 -401 154 -221 78 -407 145 -414
147 -7 3 -15 2 -18 -3z"/>
<path d="M2053 6341 c-137 -47 -217 -169 -217 -331 0 -169 107 -293 278 -323
206 -35 369 120 383 363 4 71 2 94 -17 143 -12 32 -28 61 -36 64 -8 3 -39 -11
-69 -31 l-55 -36 17 -33 c44 -84 3 -231 -77 -276 -42 -24 -70 -27 -70 -8 0 6
18 111 40 232 22 121 40 223 40 227 0 11 -71 28 -120 28 -25 -1 -68 -9 -97
-19z m81 -178 c-3 -16 -15 -84 -27 -152 -12 -68 -27 -126 -34 -128 -19 -7 -81
55 -93 93 -32 95 42 214 132 214 25 0 27 -3 22 -27z"/>
<path d="M8577 5846 c-111 -41 -183 -133 -207 -266 -21 -115 9 -252 71 -319
l31 -34 51 51 c50 50 50 52 33 71 -48 53 -60 169 -23 241 19 40 75 90 98 90 5
0 9 -35 9 -78 0 -44 3 -154 7 -247 l6 -167 67 4 c120 9 221 74 272 177 19 39
23 62 23 151 0 122 -16 169 -83 242 -64 69 -120 92 -227 95 -59 2 -103 -2
-128 -11z m261 -210 c78 -77 56 -213 -41 -256 -23 -10 -42 -18 -43 -17 -1 1
-4 73 -7 161 l-5 158 31 -6 c18 -4 47 -21 65 -40z"/>
<path d="M1782 5573 c3 -55 9 -88 18 -93 7 -4 107 -43 222 -86 115 -42 205
-80 201 -84 -4 -4 -102 -49 -216 -101 l-208 -94 7 -90 c3 -49 7 -91 9 -92 1
-2 142 63 315 144 l312 148 -7 95 c-3 52 -7 95 -8 96 -1 0 -148 55 -326 122
l-323 121 4 -86z"/>
<path d="M8418 5163 c-49 -56 -97 -194 -105 -298 -12 -171 59 -275 188 -275
87 0 131 46 189 197 44 115 62 143 91 143 61 0 64 -128 6 -242 l-35 -68 56
-41 c65 -46 65 -46 109 50 70 155 70 321 0 406 -37 45 -81 65 -142 65 -85 0
-132 -42 -179 -162 -14 -36 -26 -69 -26 -72 0 -4 -9 -26 -21 -51 -24 -51 -52
-65 -80 -39 -41 37 -14 189 52 283 17 24 27 47 22 50 -5 3 -30 21 -55 39 -26
17 -48 32 -51 32 -2 0 -11 -8 -19 -17z"/>
<path d="M2336 4888 c-20 -29 -36 -58 -36 -63 0 -6 16 -26 35 -45 63 -61 82
-168 44 -247 -23 -47 -56 -73 -69 -53 -4 6 -33 110 -65 231 -67 252 -59 243
-170 190 -150 -71 -218 -226 -169 -392 47 -162 182 -259 340 -246 169 13 290
132 302 295 10 151 -48 287 -160 371 -14 11 -21 5 -52 -41z m-196 -190 c29
-109 62 -235 66 -250 7 -23 -32 -24 -80 -4 -73 31 -117 141 -86 216 12 30 63
80 80 80 5 0 14 -19 20 -42z"/>
<path d="M8215 4489 c-15 -44 -23 -84 -19 -89 11 -9 570 -200 588 -200 10 0
70 159 63 166 -3 3 -593 204 -600 204 -3 0 -17 -36 -32 -81z"/>
<path d="M7972 4345 c-67 -46 -132 -128 -185 -235 -38 -78 -41 -92 -42 -165 0
-159 40 -200 387 -392 141 -79 260 -143 265 -143 9 0 83 126 83 141 0 5 -14
16 -32 25 l-32 17 50 22 c103 46 174 165 174 295 0 273 -358 404 -536 196 -58
-68 -79 -122 -79 -203 0 -52 -4 -73 -12 -73 -23 0 -92 71 -103 106 -27 79 45
217 151 288 l48 32 -37 62 c-20 34 -39 62 -42 62 -3 0 -29 -16 -58 -35z m414
-336 c87 -42 114 -142 61 -231 -35 -61 -80 -88 -144 -88 -65 0 -110 30 -142
92 -21 44 -22 52 -11 96 6 27 25 66 42 87 55 66 120 81 194 44z"/>
<path d="M8951 4305 c-63 -54 -62 -147 3 -186 38 -23 58 -24 97 -3 49 25 75
115 49 165 -13 24 -61 49 -94 49 -13 0 -38 -11 -55 -25z"/>
<path d="M2325 4192 c-122 -42 -209 -116 -258 -220 -30 -62 -32 -74 -31 -172
0 -83 5 -116 21 -158 23 -56 220 -409 233 -417 11 -7 720 397 720 410 0 16
-188 340 -234 402 -50 69 -143 135 -219 158 -67 20 -170 19 -232 -3z m230
-182 c58 -23 107 -73 165 -172 33 -57 60 -108 60 -113 0 -10 -409 -249 -438
-257 -8 -2 -38 40 -74 104 -52 92 -61 117 -65 171 -7 82 8 128 60 185 80 86
196 119 292 82z"/>
<path d="M7729 3584 l-63 -66 45 -41 c135 -124 233 -225 246 -256 36 -85 -42
-201 -134 -201 -41 0 -73 24 -218 159 -71 66 -132 121 -136 121 -11 0 -120
-123 -117 -131 5 -14 272 -260 313 -288 75 -52 146 -64 224 -36 101 35 176
131 196 249 l6 38 25 -23 24 -23 60 59 c33 33 60 62 60 65 0 5 -299 288 -421
397 l-46 42 -64 -65z"/>
<path d="M3224 3251 c-101 -26 -195 -107 -242 -209 -54 -118 -27 -256 69 -350
54 -53 113 -82 172 -84 26 -1 47 -4 47 -6 0 -2 -43 -56 -96 -120 l-95 -117 38
-34 c56 -49 103 -84 107 -80 9 11 540 665 547 674 4 6 -20 33 -57 64 l-65 53
-30 -28 -29 -28 0 29 c0 73 -78 167 -174 211 -57 26 -144 37 -192 25z m177
-194 c18 -12 44 -38 57 -57 34 -51 28 -135 -15 -187 -48 -61 -88 -83 -148 -83
-66 0 -124 39 -149 99 -21 54 -20 86 4 136 51 104 168 148 251 92z"/>
<path d="M7140 3016 c-110 -31 -224 -122 -266 -211 -35 -74 -33 -80 34 -95 31
-7 62 -14 68 -17 6 -2 14 6 17 20 19 75 128 157 209 157 38 0 108 -27 108 -42
0 -4 -89 -67 -197 -139 -109 -73 -200 -133 -201 -135 -6 -5 54 -87 85 -116 15
-15 54 -39 87 -54 51 -23 67 -26 135 -22 100 6 174 42 246 120 80 86 107 184
81 289 -49 192 -221 296 -406 245z m252 -321 c18 -70 -44 -164 -122 -185 -46
-12 -100 -1 -139 29 l-24 19 129 86 c71 47 133 85 138 83 6 -2 13 -16 18 -32z"/>
<path d="M3833 2820 c-13 -5 -23 -11 -23 -12 0 -2 9 -30 19 -63 l19 -60 58 -1
c130 -2 234 -86 234 -189 0 -19 -2 -35 -5 -35 -2 0 -103 47 -222 105 -200 96
-219 103 -231 87 -18 -24 -52 -139 -52 -176 2 -180 162 -328 357 -328 124 0
222 59 284 174 32 58 34 69 34 153 0 78 -4 97 -27 140 -28 55 -106 133 -158
160 -95 49 -226 70 -287 45z m151 -407 c108 -54 108 -54 90 -75 -25 -27 -75
-48 -117 -48 -98 0 -192 113 -161 193 7 19 25 12 188 -70z"/>
<path d="M6615 2729 c-38 -16 -71 -32 -74 -34 -2 -3 26 -76 63 -164 75 -180
82 -225 43 -282 -19 -28 -74 -69 -111 -82 -9 -3 -2 -24 38 -120 l16 -37 30 15
c48 25 97 73 118 116 l21 41 15 -37 c10 -22 21 -35 28 -32 118 46 148 61 145
71 -59 154 -243 576 -251 576 -6 -1 -42 -14 -81 -31z"/>
<path d="M4437 2161 c-103 -215 -187 -394 -187 -399 0 -5 30 -13 68 -16 37 -4
75 -10 85 -12 14 -5 36 33 123 213 59 120 119 247 135 282 16 35 31 62 34 60
2 -3 29 -139 59 -303 30 -164 57 -300 59 -302 6 -6 168 -27 172 -22 3 2 65
128 139 279 76 155 137 267 140 259 3 -8 28 -143 56 -300 29 -157 55 -288 58
-291 7 -6 184 -31 188 -26 2 2 -154 837 -160 853 -2 6 -33 14 -68 18 -34 4
-79 10 -99 13 l-36 5 -133 -268 c-73 -148 -134 -264 -136 -259 -2 6 -26 136
-55 290 -28 154 -52 281 -54 283 -1 2 -34 7 -71 12 -38 6 -83 12 -100 15 l-31
5 -186 -389z"/>
<path d="M5884 2516 c-17 -8 -39 -24 -48 -37 -20 -29 -21 -91 -2 -128 41 -79
181 -62 205 24 26 96 -67 181 -155 141z"/>
</g>
</svg>
